<?xml version="1.0" encoding="UTF-8" standalone="no"?>
<svg
   version="1.0"
   width="190pt"
   height="190pt"
   viewBox="0 0 190 190"
   preserveAspectRatio="xMidYMid"
   id="svg44"
   sodipodi:docname="logo_white.svg"
   inkscape:export-filename="favicon.svg"
   inkscape:export-xdpi="96"
   inkscape:export-ydpi="96"
   inkscape:version="1.2.1 (9c6d41e410, 2022-07-14)"
   xmlns:inkscape="http://www.inkscape.org/namespaces/inkscape"
   xmlns:sodipodi="http://sodipodi.sourceforge.net/DTD/sodipodi-0.dtd"
   xmlns="http://www.w3.org/2000/svg"
   xmlns:svg="http://www.w3.org/2000/svg">
  <defs
     id="defs48">
    <clipPath
       clipPathUnits="userSpaceOnUse"
       id="clipPath628">
      <rect
         style="fill:#ffffff;fill-opacity:0.707746;stroke-width:9"
         id="rect630"
         width="1800"
         height="1800"
         x="374.65936"
         y="-3640.3406"
         transform="scale(1,-1)" />
    </clipPath>
  </defs>
  <sodipodi:namedview
     id="namedview46"
     pagecolor="#ffffff"
     bordercolor="#000000"
     borderopacity="0.25"
     inkscape:showpageshadow="2"
     inkscape:pageopacity="0.0"
     inkscape:pagecheckerboard="0"
     inkscape:deskcolor="#d1d1d1"
     inkscape:document-units="pt"
     showgrid="false"
     inkscape:zoom="0.944"
     inkscape:cx="-29.661017"
     inkscape:cy="215.57203"
     inkscape:window-width="1280"
     inkscape:window-height="730"
     inkscape:window-x="-6"
     inkscape:window-y="-6"
     inkscape:window-maximized="1"
     inkscape:current-layer="g42" />
  <g
     transform="matrix(0.1,0,0,-0.1,0,375)"
     fill="#FFFFFF"
     stroke="none"
     id="g42"
     style="fill:#000000">
    <path
       d="m 269.65937,3435.3406 v -45 h 367 366.00003 l -39.00003,-28 c -49,-36 -122,-115 -153,-164 l -23,-38 h -259 -259 v -40 -40 h 241 c 226,0 241,-1 234,-17 -7,-20 -30,-120 -39,-175 l -7,-38 h -214 -215 v -40 -40 h 210 c 160,0 212,-3 215,-12 2,-7 5,-59 7,-115 l 4,-103 h -218 -218 v -40 -40 l 227,-2 227,-3 31,-80 c 18,-44 42,-97 54,-117 l 23,-38 h -281 -281 v -40 -40 h 318 319 l 24,-26 c 37,-40 126.00003,-90 214.00003,-120 72,-25 94,-28 215,-28 157,-1 211,10 329,66 154,73 272,226 322,415 26,97 37,334 20,440 -32,207 -125,373 -265,475 l -39,28 h 296 297 v -1030 -1030 h 111 110 l -3,424 -3,424 58,-59 c 131,-131 345,-187 552,-144 217,46 374,212 438,463 19,77 22,111 21,292 -1,178 -4,216 -22,284 -62,225 -183,369 -365,434 -64,23 -88,26 -207,26 -116,1 -144,-2 -203,-23 -86,-29 -159,-77 -219,-143 -26,-29 -49,-50 -52,-48 -2,3 -13,52 -23,110 l -19,105 -1112,3 -1112.00003,2 z m 1272.00003,-174 c 117,-45 203,-154 245,-311 25,-92 25,-368 0,-460 -42,-156 -127,-265 -245,-312 -48,-19 -75,-23 -177,-23 -114,0 -123,2 -185,31 -124,59 -202.00003,173 -236.00003,343 -25,128 -16,358 19,466 52.00003,159 138.00003,244 282.00003,282 74,19 226,11 297,-16 z m 1594,-5 c 104,-48 179,-149 220,-296 26,-93 26,-377 0,-470 -42,-153 -119,-259 -224,-308 -52,-25 -68,-27 -172,-26 -143,0 -210,23 -280,93 -79,79 -113,176 -131,371 -15,174 5,358 52,466 23,55 92,130 141,155 112,57 287,64 394,15 z"
       id="path36"
       style="fill:#000000"
       clip-path="url(#clipPath628)"
       transform="translate(-304.65942,124.65942)" />
    <path
       style="fill:#000000;fill-opacity:0.707746;stroke-width:7.5"
       d="M 2319.6594,3390.3406 V 3475.81"
       id="path511" />
  </g>
</svg>
