<?xml version="1.0" encoding="UTF-8"?>
<svg width="456" height="256" version="1.1" viewBox="0 0 456 256" xmlns="http://www.w3.org/2000/svg">
    <path d="m227.67 0c-72.04 0-130.28 58.666-130.28 131.24 0 58.016 37.315 107.12 89.08 124.51 6.472 1.3067 8.8426-2.824 8.8426-6.2986 0-3.0426-0.21334-13.472-0.21334-24.339-36.24 7.824-43.786-15.645-43.786-15.645-5.824-15.211-14.453-19.12-14.453-19.12-11.861-8.04 0.86399-8.04 0.86399-8.04 13.157 0.86933 20.061 13.472 20.061 13.472 11.645 19.989 30.411 14.341 37.96 10.864 1.0773-8.4746 4.5306-14.341 8.1973-17.6-28.904-3.0426-59.314-14.341-59.314-64.754 0-14.341 5.1733-26.075 13.371-35.2-1.2933-3.2587-5.824-16.733 1.296-34.768 0 0 11-3.4773 35.803 13.472a125.25 125.25 0 0 1 32.571-4.3466c11 0 22.213 1.5227 32.568 4.3466 24.805-16.949 35.805-13.472 35.805-13.472 7.12 18.035 2.5866 31.509 1.2933 34.768 8.4133 9.1253 13.373 20.859 13.373 35.2 0 50.413-30.411 61.493-59.53 64.754 4.7466 4.128 8.8426 11.949 8.8426 24.336 0 17.6-0.21333 31.725-0.21333 36.069 0 3.4773 2.3733 7.608 8.8426 6.304 51.765-17.387 89.08-66.493 89.08-124.51 0.21333-72.578-58.237-131.24-130.06-131.24z" clip-rule="evenodd" fill="#24292f" fill-rule="evenodd" stroke-width="2.6667"/>
</svg>
