<?xml version="1.0" encoding="UTF-8"?>
<svg width="456" height="256" version="1.1" viewBox="0 0 456 256" xmlns="http://www.w3.org/2000/svg">
    <path d="m342.78 130.72c0-8.58-0.8-16.82-2.2-24.72h-113.02v45.96h64.66c-2.68 15.24-11.12 28.24-24.02 36.9v30.18h38.88c22.66-20.9 35.7-51.78 35.7-88.32z" fill="#4285f4" stroke-width="2"/>
    <path d="m227.56 248c32.38 0 59.66-10.64 79.52-28.96l-38.88-30.18c-10.72 7.2-24.52 11.42-40.64 11.42-31.22 0-57.72-21.06-67.18-49.46h-40.04v31.06c19.74 39.2 60.32 66.12 107.22 66.12z" fill="#34a853" stroke-width="2"/>
    <path d="m120.34 181.88 40.04-31.06c-2.4-7.22-3.72-14.88-3.72-22.82s1.32-15.6 3.72-22.82v-31.06h-40.04c-8.16 16.2-12.78 34.5-12.78 53.88s4.62 37.68 12.78 53.88z" fill="#fbbc05" stroke-width="2"/>
    <path d="m227.56 55.72c17.64 0 33.44 6.08 45.9 17.94l34.4-34.4c-20.8-19.36-47.94-31.26-80.3-31.26-46.9 0-87.48 26.92-107.22 66.12l40.04 31.06c9.46-28.38 35.96-49.46 67.18-49.46z" fill="#ea4335" stroke-width="2"/>
    <path d="m107.56 128v-120h240v240h-240z" fill="none" stroke-width="2"/>
</svg>
