<svg width="145" height="26" viewBox="0 0 145 26" fill="none" xmlns="http://www.w3.org/2000/svg">
<g clip-path="url(#clip0_2011_8848)">
<path d="M81.0508 19.0453H84.1348V7.88073H81.0508V19.0453ZM81.0508 6.13968H84.1348V3.48456H81.0508V6.13968Z" fill="#1E1E1E"/>
<path d="M86.1221 22.7016H89.2061V17.783H89.2511C89.9085 18.7406 90.9747 19.3718 92.607 19.3718C95.6004 19.3718 97.6414 17.0866 97.6414 13.474C97.6414 9.99177 95.6685 7.57605 92.5845 7.57605C90.9971 7.57605 89.9085 8.29428 89.1605 9.2736H89.0924V7.88074H86.1221V22.7016ZM91.9495 16.9125C90.1129 16.9125 89.138 15.585 89.138 13.561C89.138 11.5587 89.9085 9.97006 91.8364 9.97006C93.7412 9.97006 94.5117 11.4499 94.5117 13.561C94.5117 15.672 93.5144 16.9125 91.9495 16.9125Z" fill="#1E1E1E"/>
<path d="M103.793 19.3718C106.696 19.3718 108.692 18.0225 108.692 15.7808C108.692 13.1693 106.538 12.6469 104.587 12.2552C102.932 11.9287 101.39 11.8417 101.39 10.8841C101.39 10.0789 102.184 9.6436 103.385 9.6436C104.701 9.6436 105.495 10.0789 105.63 11.2758H108.419C108.193 9.03423 106.492 7.57605 103.431 7.57605C100.778 7.57605 98.6915 8.72954 98.6915 11.1453C98.6915 13.5828 100.733 14.1268 102.819 14.5186C104.406 14.8233 105.879 14.9321 105.879 15.9985C105.879 16.782 105.109 17.2825 103.748 17.2825C102.365 17.2825 101.412 16.7166 101.209 15.4326H98.3516C98.5328 17.8048 100.415 19.3718 103.793 19.3718Z" fill="#1E1E1E"/>
<path d="M120.4 19.0453V7.88074H117.316V14.3227C117.316 15.8026 116.432 16.8472 114.981 16.8472C113.666 16.8472 113.054 16.129 113.054 14.8233V7.88074H109.992V15.3238C109.992 17.7613 111.443 19.35 114.029 19.35C115.662 19.35 116.568 18.7624 117.362 17.7396H117.43V19.0453H120.4Z" fill="#1E1E1E"/>
<path d="M122.395 19.0453H125.479V12.5599C125.479 11.0799 126.318 10.1224 127.565 10.1224C128.699 10.1224 129.356 10.7753 129.356 12.0375V19.0453H132.44V12.5599C132.44 11.0799 133.234 10.1224 134.526 10.1224C135.661 10.1224 136.318 10.7753 136.318 12.0375V19.0453H139.402V11.537C139.402 9.09948 138.018 7.57605 135.569 7.57605C134.096 7.57605 132.871 8.31599 132.077 9.53474H132.032C131.465 8.35954 130.286 7.57605 128.812 7.57605C127.202 7.57605 126.069 8.35954 125.434 9.3824H125.365V7.88074H122.395V19.0453Z" fill="#1E1E1E"/>
<path d="M0.672852 19.0453H3.75679V3.48456H0.672852V19.0453Z" fill="#1E1E1E"/>
<path d="M11.2969 19.3718C14.9024 19.3718 17.3741 16.8037 17.3741 13.474C17.3741 10.1441 14.9024 7.57605 11.2969 7.57605C7.6914 7.57605 5.21973 10.1441 5.21973 13.474C5.21973 16.8037 7.6914 19.3718 11.2969 19.3718ZM11.2969 17.1084C9.39215 17.1084 8.34902 15.6502 8.34902 13.474C8.34902 11.2976 9.39215 9.81772 11.2969 9.81772C13.179 9.81772 14.2448 11.2976 14.2448 13.474C14.2448 15.6502 13.179 17.1084 11.2969 17.1084Z" fill="#1E1E1E"/>
<path d="M23.9329 22.8539C25.6563 22.8539 27.1529 22.4622 28.1279 21.5916C28.9896 20.8299 29.5112 19.7635 29.5112 18.1966V7.88074H26.5407V9.056H26.4953C25.7923 8.12017 24.7266 7.57605 23.2753 7.57605C20.3274 7.57605 18.2412 9.70885 18.2412 13.0386C18.2412 16.412 20.7809 18.3706 23.366 18.3706C24.8399 18.3706 25.7243 17.8048 26.4046 17.0649H26.4726V18.2836C26.4726 19.8071 25.6336 20.6123 23.8875 20.6123C22.4589 20.6123 21.8013 20.0682 21.5519 19.3718H18.4906C18.8081 21.5481 20.7582 22.8539 23.9329 22.8539ZM23.8875 15.9985C22.3002 15.9985 21.2571 14.8885 21.2571 12.9952C21.2571 11.1235 22.3002 9.94829 23.8648 9.94829C25.7243 9.94829 26.6313 11.3411 26.6313 12.9734C26.6313 14.6274 25.8377 15.9985 23.8875 15.9985Z" fill="#1E1E1E"/>
<path d="M37.0059 19.3718C40.6114 19.3718 43.0831 16.8037 43.0831 13.474C43.0831 10.1441 40.6114 7.57605 37.0059 7.57605C33.4004 7.57605 30.9287 10.1441 30.9287 13.474C30.9287 16.8037 33.4004 19.3718 37.0059 19.3718ZM37.0059 17.1084C35.1011 17.1084 34.0581 15.6502 34.0581 13.474C34.0581 11.2976 35.1011 9.81772 37.0059 9.81772C38.888 9.81772 39.9538 11.2976 39.9538 13.474C39.9538 15.6502 38.888 17.1084 37.0059 17.1084Z" fill="#1E1E1E"/>
<path d="M140.522 6.0478C140.522 5.54698 140.946 5.14099 141.468 5.14099H143.357C143.879 5.14099 144.302 5.54698 144.302 6.0478C144.302 6.54861 143.879 6.95461 143.357 6.95461H141.468C140.946 6.95461 140.522 6.54861 140.522 6.0478Z" fill="#1E1E1E"/>
<path fill-rule="evenodd" clip-rule="evenodd" d="M61.7863 0.304749C69.0915 0.304749 75.0142 5.98862 75.0142 13C75.0142 20.0114 69.0915 25.6953 61.7863 25.6953C54.4808 25.6953 48.5586 20.0114 48.5586 13C48.5586 5.98862 54.4808 0.304749 61.7863 0.304749ZM61.3082 1.25473C59.7991 1.45855 58.3622 2.62232 57.2467 4.56871C56.9232 5.13329 56.6313 5.75702 56.3769 6.43049C57.8936 6.0647 59.5597 5.84904 61.3082 5.81568V1.25473ZM55.2589 6.73541C55.5753 5.78249 55.9623 4.90577 56.4089 4.12644C56.9618 3.16156 57.618 2.32834 58.3574 1.68839C54.3369 2.80904 51.1679 5.85054 50.0002 9.70921C50.667 8.99961 51.5352 8.3698 52.5405 7.83914C53.3526 7.41048 54.266 7.03902 55.2589 6.73541ZM54.9412 7.80835C54.5601 9.26399 54.3354 10.863 54.3006 12.5411H49.5484C49.7607 11.0928 50.9733 9.71372 53.0014 8.64326C53.5896 8.33273 54.2395 8.05254 54.9412 7.80835ZM55.257 12.5411C55.2965 10.7098 55.5713 8.99047 56.0258 7.47135C57.6086 7.03515 59.4 6.77146 61.3082 6.73357V8.71587C60.5963 10.4649 59.1445 11.8582 57.322 12.5411H55.257ZM54.3006 13.4589H49.5484C49.7607 14.9072 50.9733 16.2863 53.0014 17.3568C53.5896 17.6673 54.2395 17.9475 54.9412 18.1917C54.5601 16.736 54.3354 15.137 54.3006 13.4589ZM56.0258 18.5287C55.5713 17.0096 55.2965 15.2902 55.257 13.4589H57.322C59.1445 14.1418 60.5963 15.5351 61.3082 17.2842V19.2665C59.4 19.2286 57.6086 18.9649 56.0258 18.5287ZM55.2589 19.2646C54.266 18.961 53.3526 18.5896 52.5405 18.1609C51.5352 17.6302 50.667 17.0004 50.0002 16.2908C51.1679 20.1495 54.3369 23.191 58.3574 24.3116C57.618 23.6717 56.9618 22.8385 56.4089 21.8736C55.9623 21.0943 55.5753 20.2175 55.2589 19.2646ZM61.3082 24.7453C59.7991 24.5415 58.3622 23.3777 57.2467 21.4313C56.9232 20.8668 56.6313 20.243 56.3769 19.5696C57.8936 19.9353 59.5597 20.151 61.3082 20.1843V24.7453ZM65.2151 24.3116C65.9545 23.6717 66.6106 22.8385 67.1636 21.8736C67.61 21.0943 67.9976 20.2175 68.3137 19.2646C69.3064 18.961 70.2198 18.5896 71.032 18.1609C72.0373 17.6302 72.9057 17.0004 73.5724 16.2908C72.4044 20.1495 69.2357 23.191 65.2151 24.3116ZM67.196 19.5696C66.9413 20.243 66.649 20.8668 66.3256 21.4313C65.2104 23.3777 63.7734 24.5415 62.2643 24.7453V20.1843C64.0129 20.151 65.6789 19.9353 67.196 19.5696ZM68.6312 18.1917C69.3329 17.9475 69.983 17.6673 70.571 17.3568C72.5995 16.2863 73.8118 14.9072 74.0241 13.4589H69.2721C69.237 15.137 69.0121 16.736 68.6312 18.1917ZM68.3157 13.4589C68.276 15.2902 68.0015 17.0096 67.5465 18.5287C65.9639 18.9649 64.1725 19.2286 62.2643 19.2665V17.2856C62.976 15.536 64.4282 14.142 66.2511 13.4589H68.3157ZM69.2721 12.5411H74.0241C73.8118 11.0928 72.5995 9.71372 70.571 8.64326C69.983 8.33273 69.3329 8.05254 68.6312 7.80835C69.0121 9.26399 69.237 10.863 69.2721 12.5411ZM67.5465 7.47135C68.0015 8.99047 68.276 10.7098 68.3157 12.5411H66.2512C64.4282 11.858 62.976 10.4641 62.2643 8.71441V6.73357C64.1725 6.77146 65.9639 7.03515 67.5465 7.47135ZM68.3137 6.73541C69.3064 7.03902 70.2198 7.41048 71.032 7.83914C72.0373 8.3698 72.9057 8.99961 73.5724 9.70921C72.4044 5.85054 69.2357 2.80904 65.2151 1.68839C65.9545 2.32834 66.6106 3.16156 67.1636 4.12644C67.61 4.90577 67.9976 5.78249 68.3137 6.73541ZM62.2643 1.25473C63.7734 1.45855 65.2104 2.62232 66.3256 4.56871C66.649 5.13329 66.9413 5.75702 67.196 6.43049C65.6789 6.0647 64.0129 5.84904 62.2643 5.81568V1.25473Z" fill="#1E1E1E"/>
</g>
<defs>
<clipPath id="clip0_2011_8848">
<rect width="144.182" height="25.3905" fill="white" transform="translate(0.126953 0.304749)"/>
</clipPath>
</defs>
</svg>
