<?xml version="1.0" standalone="no"?>
<!DOCTYPE svg PUBLIC "-//W3C//DTD SVG 20010904//EN"
 "http://www.w3.org/TR/2001/REC-SVG-20010904/DTD/svg10.dtd">
<svg version="1.0" xmlns="http://www.w3.org/2000/svg"
 width="1437.000000pt" height="375.000000pt" viewBox="0 0 1437.000000 375.000000"
 preserveAspectRatio="xMidYMid meet">

<g transform="translate(0.000000,375.000000) scale(0.100000,-0.100000)"
fill="#FFFFFF" stroke="none">
<path d="M7890 3025 c-176 -36 -329 -129 -431 -264 -96 -125 -166 -302 -204
-508 -23 -122 -31 -435 -15 -559 55 -442 307 -687 681 -660 217 15 388 123
474 301 46 94 64 169 71 295 17 320 -134 553 -397 615 -83 19 -266 19 -339 0
-102 -27 -199 -84 -284 -168 -44 -42 -81 -75 -84 -72 -10 10 22 236 48 342 49
193 142 356 254 446 146 116 371 164 571 122 38 -8 71 -15 72 -15 2 0 3 27 3
59 l0 59 -63 11 c-84 15 -276 12 -357 -4z m140 -892 c30 -8 68 -22 84 -30 44
-23 122 -100 151 -149 60 -102 80 -279 50 -432 -48 -237 -209 -372 -443 -372
-252 1 -465 229 -496 530 -31 302 320 545 654 453z"/>
<path d="M9150 3025 c-126 -25 -308 -112 -364 -174 -18 -19 -17 -21 14 -65 19
-26 38 -42 44 -39 6 4 31 21 56 39 207 146 484 174 646 65 114 -77 167 -178
168 -326 1 -111 -14 -175 -69 -290 -74 -159 -131 -226 -601 -718 l-324 -338 0
-60 0 -59 610 0 610 0 0 65 0 65 -521 0 -521 0 304 312 c166 172 328 342 359
378 139 160 235 323 270 459 23 88 28 257 10 335 -43 180 -181 310 -377 351
-84 18 -226 18 -314 0z"/>
<path d="M12152 2335 c-463 -658 -482 -687 -482 -730 l0 -45 500 0 500 0 0
-250 0 -250 65 0 65 0 0 250 0 250 170 0 170 0 0 55 0 55 -170 0 -170 0 0 675
0 675 -83 0 -82 0 -483 -685z m528 254 c-5 -173 -10 -450 -10 -616 l0 -303
-421 0 -420 0 19 28 c185 259 762 1090 794 1141 23 38 44 69 45 67 2 -1 -2
-144 -7 -317z"/>
<path d="M10337 2573 c-21 -241 -38 -443 -37 -450 0 -6 17 -21 38 -33 l37 -22
115 23 c146 29 342 32 440 6 243 -65 370 -218 370 -447 0 -196 -93 -351 -262
-434 -106 -53 -197 -69 -343 -63 -139 6 -230 28 -362 85 l-93 40 0 -70 0 -69
64 -30 c110 -52 236 -73 431 -72 142 0 183 3 248 21 241 66 402 233 442 459
53 293 -49 526 -277 637 -105 51 -176 67 -325 73 -96 4 -165 1 -253 -12 -67
-9 -123 -15 -125 -13 -2 2 10 152 26 333 16 182 29 333 29 338 0 4 185 7 410
7 l410 0 0 65 0 65 -473 0 -473 0 -37 -437z"/>
<path d="M13478 2814 c-142 -107 -258 -198 -258 -202 0 -4 17 -26 38 -50 l37
-43 181 143 c99 79 198 157 220 174 l39 32 -3 -904 -3 -904 65 0 66 0 0 975 0
975 -62 -1 -63 0 -257 -195z"/>
<path d="M450 2505 l0 -45 367 0 366 0 -39 -28 c-49 -36 -122 -115 -153 -164
l-23 -38 -259 0 -259 0 0 -40 0 -40 241 0 c226 0 241 -1 234 -17 -7 -20 -30
-120 -39 -175 l-7 -38 -214 0 -215 0 0 -40 0 -40 210 0 c160 0 212 -3 215 -12
2 -7 5 -59 7 -115 l4 -103 -218 0 -218 0 0 -40 0 -40 227 -2 227 -3 31 -80
c18 -44 42 -97 54 -117 l23 -38 -281 0 -281 0 0 -40 0 -40 318 0 319 0 24 -26
c37 -40 126 -90 214 -120 72 -25 94 -28 215 -28 157 -1 211 10 329 66 154 73
272 226 322 415 26 97 37 334 20 440 -32 207 -125 373 -265 475 l-39 28 296 0
297 0 0 -1030 0 -1030 111 0 110 0 -3 424 -3 424 58 -59 c131 -131 345 -187
552 -144 217 46 374 212 438 463 19 77 22 111 21 292 -1 178 -4 216 -22 284
-62 225 -183 369 -365 434 -64 23 -88 26 -207 26 -116 1 -144 -2 -203 -23 -86
-29 -159 -77 -219 -143 -26 -29 -49 -50 -52 -48 -2 3 -13 52 -23 110 l-19 105
-1112 3 -1112 2 0 -45z m1272 -174 c117 -45 203 -154 245 -311 25 -92 25 -368
0 -460 -42 -156 -127 -265 -245 -312 -48 -19 -75 -23 -177 -23 -114 0 -123 2
-185 31 -124 59 -202 173 -236 343 -25 128 -16 358 19 466 52 159 138 244 282
282 74 19 226 11 297 -16z m1594 -5 c104 -48 179 -149 220 -296 26 -93 26
-377 0 -470 -42 -153 -119 -259 -224 -308 -52 -25 -68 -27 -172 -26 -143 0
-210 23 -280 93 -79 79 -113 176 -131 371 -15 174 5 358 52 466 23 55 92 130
141 155 112 57 287 64 394 15z"/>
<path d="M4553 2540 c-126 -23 -255 -100 -340 -202 -52 -63 -116 -189 -137
-273 -60 -237 -38 -516 54 -694 126 -241 352 -353 680 -337 140 7 231 23 338
62 l72 27 0 98 c0 55 -2 99 -4 99 -3 0 -44 -13 -93 -29 -133 -45 -230 -61
-357 -61 -300 0 -455 146 -491 463 l-6 57 506 0 507 0 -5 153 c-3 96 -11 174
-21 211 -55 199 -189 348 -363 405 -78 26 -253 36 -340 21z m253 -196 c74 -25
124 -64 165 -127 40 -62 69 -163 69 -241 l0 -46 -380 0 -380 0 0 23 c0 33 38
163 59 206 46 88 127 157 217 185 66 20 191 20 250 0z"/>
<path d="M6142 2535 c-122 -27 -244 -99 -297 -175 -15 -22 -30 -38 -33 -35 -3
2 -12 46 -21 97 l-16 93 -92 3 -93 3 0 -731 0 -730 110 0 110 0 0 398 c0 514
11 614 83 732 62 105 167 158 328 167 191 11 305 -52 348 -192 20 -64 21 -90
21 -586 l0 -519 116 0 116 0 -4 548 c-5 588 -5 592 -60 709 -30 65 -111 143
-182 177 -110 52 -300 70 -434 41z"/>
</g>
</svg>
