<svg xmlns="http://www.w3.org/2000/svg" viewBox="0 0 24 24" fill="currentColor"><path d="M0 7.557v8.886h5.144c1.735 0 3.092-.375 4.07-1.125.978-.749 1.468-1.831 1.468-3.246 0-1.019-.334-1.869-1.002-2.549-.668-.68-1.557-1.052-2.668-1.117v-.044c.935-.195 1.645-.592 2.13-1.192.484-.599.726-1.338.726-2.217 0-1.288-.438-2.273-1.313-2.955-.876-.682-2.096-1.023-3.659-1.023H0v.029zm2.418 1.802h2.515c.85 0 1.482.162 1.895.485.413.323.619.82.619 1.489 0 .665-.237 1.169-.71 1.512-.473.343-1.13.514-1.97.514H2.418V9.36zm0 5.591h2.839c.944 0 1.643.185 2.097.554.454.37.681.933.681 1.691 0 .754-.238 1.319-.714 1.697-.476.378-1.183.567-2.121.567H2.418v-4.509zM15.117 6h5.766v1.485h-5.766V6zm-1.285 7.607c.302.759.914 1.138 1.837 1.138.567 0 1.046-.163 1.438-.489.393-.326.618-.667.677-1.023h2.515c-.404 1.256-1.019 2.15-1.846 2.682-.827.532-1.827.798-3.001.798-1.535 0-2.755-.478-3.66-1.434-.905-.956-1.358-2.272-1.358-3.948 0-1.619.437-2.927 1.311-3.925.874-.998 2.065-1.497 3.572-1.497 1.074 0 1.991.226 2.751.677.76.451 1.333 1.079 1.72 1.884.386.805.579 1.747.579 2.826v.688h-7.361c.015.78.349 1.411.826 1.892zm3.243-4.242c-.245-.62-.726-.93-1.444-.93-.512 0-.93.163-1.254.489-.324.326-.528.758-.613 1.295h3.657c-.04-.537-.101-.854-.346-1.474z"/></svg>
