<?xml version="1.0" encoding="UTF-8"?>
<svg width="256" height="256" version="1.1" viewBox="0 0 256 256" xmlns="http://www.w3.org/2000/svg">
    <path d="m103.38 30.186h-0.0325a104.52 104.52 0 0 0-2.1098 0.45442l-0.71409 0.12983a128.15 128.15 0 0 0-1.3957 0.32458l-0.68163 0.16229a127.72 127.72 0 0 0-18.436 5.8425l-0.3895 0.19475 36.548 121.17 1.5255-1.7852 4.0898-4.8039zm48.623-0.12983-13.308 102.08 10.776-12.594 2.1423 3.4081 23.889-86.047-0.58426-0.22721a123.24 123.24 0 0 0-21.26-6.2969 129.31 129.31 0 0 0-1.3957-0.29213zm-114.68 35.38a113.38 113.38 0 0 0-9.8349 11.101 133.4 133.4 0 0 0-5.8425 8.0497v0.06492l69.851 76.31 5.2583-6.8812 0.25967 0.12983zm179.98-1.4282-51.641 81.471 5.875 9.413 62.515-70.759a114.55 114.55 0 0 0-9.413-12.399 126.1 126.1 0 0 0-7.3356-7.7251zm-214.16 65.631a124.09 124.09 0 0 0-2.337 24.474l74.46 27.979 5.8101-7.5628zm250.16 2.1747-70.922 40.541 5.5829 8.9261 67.189-24.506v-0.32458a73.551 73.551 0 0 0 0.0325-2.1423v-3.3108l-0.0325-0.68162v-0.71409l-0.0324-0.71409-0.0325-0.71408-0.065-1.4282-0.0649-0.68162-0.0324-0.71409-0.0649-0.71409-0.0325-0.71408-0.0649-0.68163-0.0649-0.71409-0.0649-0.71408-0.0649-0.71409-0.0649-0.68163a102.76 102.76 0 0 0-1.201-8.4392v-0.12984zm-242.24 71.279a129.12 129.12 0 0 0 12.854 22.818h0.03246l21.845-4.8038 0.45442-0.58425h-0.51934l13.568-17.657zm190.95 0.68163 10.517 17.495 19.637 4.4144 0.1623-0.19476a116.92 116.92 0 0 0 8.212-13.308 120.75 120.75 0 0 0 3.7327-7.6927z" fill="#55f" stroke-width="3.2458" paint-order="markers fill stroke"/>
    <g transform="matrix(3.2458 0 0 3.2458 -29.245 0)" fill="#f5d">
        <path d="m55.53 35.83-11.41 13.03-5.22-2.3-16.98 21.82h1.48l15.88-20.32 5.17 2.29 10.9-12.45c6.04 10.27 12.55 20.15 18.47 30.49h1.48z" color="#000000" font-family="sans-serif" font-weight="400" overflow="visible" solid-color="#000000" style="font-feature-settings:normal;font-variant-alternates:normal;font-variant-caps:normal;font-variant-east-asian:normal;font-variant-ligatures:normal;font-variant-numeric:normal;font-variant-position:normal;font-variation-settings:normal;inline-size:0;isolation:auto;mix-blend-mode:normal;shape-margin:0;shape-padding:0;text-decoration-color:#000000;text-decoration-line:none;text-decoration-style:solid;text-indent:0;text-orientation:mixed;text-transform:none;white-space:normal"/>
        <path d="m55.32 39.73-10.6 12.15-5.17-2.15-14.64 18.64h1.62l13.4-17.15 5.14 2.13 10.07-11.55 15.84 26.62 1.56-0.03z" color="#000000" font-family="sans-serif" font-weight="400" overflow="visible" solid-color="#000000" style="font-feature-settings:normal;font-variant-alternates:normal;font-variant-caps:normal;font-variant-east-asian:normal;font-variant-ligatures:normal;font-variant-numeric:normal;font-variant-position:normal;font-variation-settings:normal;inline-size:0;isolation:auto;mix-blend-mode:normal;shape-margin:0;shape-padding:0;text-decoration-color:#000000;text-decoration-line:none;text-decoration-style:solid;text-indent:0;text-orientation:mixed;text-transform:none;white-space:normal"/>
        <path d="m28.1 68.36 12.23-15.59 5.24 2.13 9.51-10.92 14.28 24.4z"/>
    </g>
</svg>
