<?xml version="1.0" encoding="UTF-8" standalone="no"?>
<!-- Created with Inkscape (http://www.inkscape.org/) -->

<svg
   width="125.52966mm"
   height="29.399113mm"
   viewBox="0 0 125.52965 29.399114"
   version="1.1"
   id="svg1"
   xmlns="http://www.w3.org/2000/svg">
  <g
     id="layer1"
     transform="translate(69.94871,-51.498892)">
    <path
       id="rect18-5-2-2-0-7-09-7-4-4-7-8-9-2-0-0-2-2-5-1-1-3-1-1-2-7-1-3-5-7-8"
       style="vector-effect:none;fill:#ffffff;fill-opacity:1;stroke:none;stroke-width:0.419086;stroke-linecap:butt;stroke-linejoin:miter;stroke-miterlimit:4;stroke-dasharray:none;stroke-dashoffset:0;stroke-opacity:1;paint-order:normal"
       d="m -69.86162,51.498892 c -0.04816,7.2e-5 -0.08718,0.03992 -0.08709,0.089 v 29.221592 c 1.57e-4,0.04891 0.0391,0.08845 0.08709,0.08852 h 29.456536 c 0.04798,-7.2e-5 0.08693,-0.03961 0.08709,-0.08852 V 51.587895 c 9.2e-5,-0.04909 -0.03893,-0.08894 -0.08709,-0.089 z m 9.330296,5.654927 c 0.748614,0 1.450603,0.118707 2.10684,0.355048 0.655038,0.237541 1.230713,0.578188 1.72739,1.022079 0.495477,0.445089 0.888227,0.988648 1.176156,1.631689 0.287929,0.64304 0.431608,1.365259 0.431608,2.164261 0,0.800201 -0.143679,1.524792 -0.431608,2.173831 -0.287929,0.650239 -0.680679,1.199741 -1.176156,1.65083 -0.496677,0.451088 -1.072352,0.80125 -1.72739,1.050788 -0.656237,0.249538 -1.358226,0.374667 -2.10684,0.374667 -0.736618,0 -1.433371,-0.125129 -2.092008,-0.374667 -0.659837,-0.249538 -1.23599,-0.5997 -1.727868,-1.050788 -0.493077,-0.451089 -0.882964,-1.000591 -1.170892,-1.65083 -0.287929,-0.649039 -0.431609,-1.37363 -0.431609,-2.173831 0,-0.799002 0.14368,-1.521221 0.431609,-2.164261 0.287928,-0.643041 0.677815,-1.1866 1.170892,-1.631689 0.491878,-0.443891 1.068031,-0.784538 1.727868,-1.022079 0.658637,-0.236341 1.35539,-0.355048 2.092008,-0.355048 z m 0,2.677693 c -0.377907,0 -0.710225,0.07184 -0.998154,0.215804 -0.287928,0.143964 -0.527714,0.331417 -0.719666,0.56176 -0.191952,0.230344 -0.33611,0.496779 -0.432086,0.796705 -0.09598,0.301125 -0.143551,0.607992 -0.143551,0.921115 0,0.314322 0.04758,0.621667 0.143551,0.921593 0.09598,0.301126 0.242505,0.573026 0.441656,0.815367 0.197951,0.243539 0.441786,0.436935 0.729715,0.5809 0.287928,0.143964 0.620246,0.215804 0.998153,0.215804 0.383905,0 0.719795,-0.07184 1.007724,-0.215804 0.287928,-0.143965 0.528899,-0.337361 0.724451,-0.5809 0.194351,-0.242341 0.342081,-0.514241 0.441656,-0.815367 0.09837,-0.299926 0.148335,-0.607271 0.148335,-0.921593 0,-0.313123 -0.05233,-0.61999 -0.157905,-0.921115 -0.105574,-0.299926 -0.256875,-0.566361 -0.451227,-0.796705 -0.195551,-0.230343 -0.437,-0.417796 -0.724929,-0.56176 -0.287928,-0.143964 -0.623819,-0.215804 -1.007723,-0.215804 z m 10.162409,1.12065 h 3.992614 l -3.426547,4.760609 -0.05742,0.0957 c 0.134366,-0.05039 0.292796,-0.09084 0.475151,-0.119625 0.182356,-0.02879 0.352671,-0.04355 0.513432,-0.04355 0.601051,0 1.180297,0.109192 1.736959,0.326338 0.556663,0.218346 1.041469,0.526878 1.454166,0.926379 0.412698,0.400701 0.743831,0.878363 0.993368,1.435025 0.249538,0.556662 0.374189,1.178018 0.374189,1.861848 0,0.781006 -0.14368,1.486089 -0.431609,2.115933 -0.287928,0.631044 -0.681865,1.161516 -1.180941,1.593409 -0.499076,0.431893 -1.08308,0.763026 -1.751315,0.993368 -0.669433,0.230343 -1.377366,0.345479 -2.12598,0.345479 -0.755813,0 -1.463745,-0.115136 -2.125981,-0.345479 -0.662237,-0.230342 -1.242669,-0.561475 -1.741744,-0.993368 -0.499077,-0.431893 -0.892534,-0.954758 -1.180463,-1.569006 -0.287929,-0.614248 -0.432087,-1.301964 -0.432087,-2.063776 0,-0.825395 0.144158,-1.574958 0.432087,-2.250391 0.287929,-0.674233 0.662357,-1.360764 1.123042,-2.058991 z m 0.594777,7.131104 c -0.659837,0 -1.192217,0.204111 -1.597716,0.609611 -0.406699,0.406699 -0.60961,0.939079 -0.60961,1.597715 0,0.602251 0.196968,1.118451 0.59047,1.550344 0.393502,0.431893 0.92231,0.647413 1.588146,0.647413 0.658637,0 1.187924,-0.202434 1.588624,-0.609132 0.399501,-0.4055 0.599562,-0.941929 0.599562,-1.607765 0,-0.633442 -0.19649,-1.156308 -0.589992,-1.569006 -0.393503,-0.412697 -0.916846,-0.61918 -1.569484,-0.61918 z" />
    <path
       style="font-weight:bold;font-size:10.8313px;line-height:1;font-family:'Suisse Intl';font-feature-settings:'ss07';font-variation-settings:'opsz' 32, 'wght' 750;letter-spacing:-0.108767px;white-space:pre;inline-size:89.3736;fill:#ffffff;stroke:none;stroke-width:0"
       d="m -34.419046,67.373989 h 2.876415 l 0.679524,-2.038778 h 4.425299 l 0.695429,2.038778 h 2.939596 l -4.330453,-11.458238 h -2.971115 z m 5.784493,-8.597626 1.469799,4.362031 h -2.955501 z m 11.536594,8.597626 h 2.607641 v -8.502795 h -2.607641 v 4.488465 c 0,1.580445 -0.411041,2.196817 -1.533124,2.196817 -1.264351,0 -1.296014,-0.995677 -1.296014,-2.21262 v -4.472662 h -2.607641 v 5.12064 c 0,2.30745 0.679525,3.587603 2.939597,3.587603 1.311772,0 1.975538,-0.553148 2.497182,-1.390785 z m 4.740621,-8.502795 h -1.343436 v 1.849117 h 1.343436 v 4.267201 c 0,1.975552 0.711189,2.386477 2.8132336,2.386477 h 1.659487 v -1.880738 h -0.7428513 c -0.8692134,0 -1.1220835,-0.15804 -1.1220835,-0.964072 v -3.808868 h 1.8649348 v -1.849117 h -1.8649348 v -2.323253 h -2.6077858 z m 9.6874176,1.77009 c 1.0273848,0 1.84917597,0.632175 1.84917597,2.449688 0,1.785907 -0.79027367,2.465504 -1.84917597,2.465504 -1.0589025,0 -1.8490302,-0.679597 -1.8490302,-2.465504 0,-1.817513 0.8217912,-2.449688 1.8490302,-2.449688 z m 0,-2.022961 c -2.3547703,0 -4.5042386,1.390785 -4.5042386,4.472649 0,3.081877 2.1494683,4.488465 4.5042386,4.488465 2.35491603,0 4.5042385,-1.406588 4.5042385,-4.488465 0,-3.081864 -2.14932247,-4.472649 -4.5042385,-4.472649 z m 8.3124643,4.330411 c 0,-1.517221 0.4425591,-2.244225 1.5172204,-2.244225 1.24859,0 1.311771,0.995677 1.311771,2.21262 v 4.45686 h 2.6077877 v -4.425255 c 0,-1.517221 0.442559,-2.244225 1.517221,-2.244225 1.248591,0 1.311772,0.995677 1.311772,2.21262 v 4.45686 h 2.607786 v -5.104838 c 0,-2.30745 -0.67967,-3.587617 -2.860656,-3.587617 -1.201169,0 -2.260072,0.489937 -2.907933,1.438207 -0.395136,-0.94827 -1.1537457,-1.438207 -2.5288457,-1.438207 -1.2801092,0 -2.1967453,0.679597 -2.5761234,1.311772 V 58.871194 H 3.0349036 v 8.502795 H 5.6425439 Z M 23.263924,62.063689 c -3.303215,0.252869 -5.657985,0.932468 -5.657985,3.018652 0,1.54884 1.327531,2.497096 2.939596,2.497096 1.216927,0 2.228408,-0.331883 2.860656,-1.232745 l 0.0321,1.027297 h 2.560363 c -0.126943,-0.53736 -0.189688,-1.533038 -0.189688,-2.465504 v -0.885046 l 0.0321,-1.849118 c 0.04815,-2.576123 -1.343436,-3.5718 -3.79305,-3.5718 -2.528701,0 -4.045922,1.422391 -4.172429,3.018638 h 2.433856 c 0.110895,-0.821821 0.67967,-1.248548 1.51722,-1.248548 0.948299,0 1.43828,0.3477 1.43828,1.359181 z m 0.06275,1.738485 c 0,1.564642 -0.790128,2.007172 -1.833271,2.007172 -0.679671,0 -1.201169,-0.363502 -1.201169,-0.916665 0,-0.91665 1.216927,-1.122112 3.03444,-1.295955 z m 4.42457,-4.93098 h -1.343293 v 1.849117 h 1.343291 v 4.267201 c 0,1.975552 0.711187,2.386477 2.813233,2.386477 h 1.659488 v -1.880738 h -0.742852 c -0.869213,0 -1.122084,-0.15804 -1.122084,-0.964072 v -3.808868 h 1.864936 v -1.849117 h -1.864936 v -2.323253 h -2.607785 z m 5.688919,0 v 8.502795 h 2.623545 v -8.502795 z m 0,-2.955443 v 2.0862 h 2.607786 v -2.0862 z m 8.328369,4.725533 c 1.027239,0 1.84903,0.632175 1.84903,2.449688 0,1.785907 -0.790128,2.465504 -1.84903,2.465504 -1.058903,0 -1.849176,-0.679597 -1.849176,-2.465504 0,-1.817513 0.821937,-2.449688 1.849176,-2.449688 z m 0,-2.022961 c -2.354916,0 -4.504239,1.390785 -4.504239,4.472649 0,3.081877 2.149323,4.488465 4.504239,4.488465 2.354916,0 4.504239,-1.406588 4.504239,-4.488465 0,-3.081864 -2.149323,-4.472649 -4.504239,-4.472649 z m 8.312464,0.252871 H 47.47321 v 8.502795 h 2.607786 v -4.36203 c 0,-1.580446 0.458318,-2.30745 1.580401,-2.30745 1.264351,0 1.311773,0.995677 1.311773,2.21262 v 4.45686 h 2.607786 v -5.104838 c 0,-2.30745 -0.679524,-3.587617 -2.860656,-3.587617 -1.34329,0 -2.259925,0.679597 -2.639304,1.311772 z"
       id="text236-1-1-7-3-82-1-1-9-1-4-6-6-4-8-7-5-9-9-5-6-2-4-3-2-6-2-9-2-2"
       aria-label="Automation" />
    <path
       style="font-weight:600;font-size:10.7524px;line-height:1;font-family:'Suisse Intl';font-variation-settings:'opsz' 32, 'wght' 625;letter-spacing:0px;word-spacing:-0.168199px;white-space:pre;inline-size:136.016;fill:#ffffff;stroke:none;stroke-width:0"
       d="m -33.705829,77.24527 h 1.235708 v -2.704718 h 3.145366 v -1.002389 h -3.145366 v -1.555437 h 3.326834 v -1.002382 h -4.562542 z m 7.12043,-3.819443 c 0.656674,0 1.123359,0.527113 1.123359,1.503576 0,0.976465 -0.466685,1.494948 -1.123359,1.494948 -0.656748,0 -1.123436,-0.518483 -1.123436,-1.494948 0,-0.976463 0.466688,-1.503576 1.123436,-1.503576 z m 0,3.931779 c 1.175196,0 2.333108,-0.803645 2.333108,-2.428203 0,-1.633199 -1.157912,-2.436834 -2.333108,-2.436834 -1.175271,0 -2.333185,0.803635 -2.333185,2.436834 0,1.624558 1.157914,2.428203 2.333185,2.428203 z m 5.755094,-4.735424 c -0.07797,-0.0086 -0.181464,-0.01727 -0.259261,-0.01727 -0.544398,0 -0.959167,0.224668 -1.227108,0.803633 v -0.812272 h -1.175191 v 4.649009 h 1.19255 v -2.436844 c 0,-0.872768 0.388811,-1.088801 0.976446,-1.088801 0.172787,0 0.319697,0 0.492564,0.02596 z m 2.457193,4.623088 h 1.235711 v -2.704718 h 3.145366 v -1.002389 h -3.145366 v -1.555437 h 3.326831 v -1.002382 h -4.562542 z m 7.872175,0 h 1.1924759 v -4.649005 h -1.1924759 v 2.419556 c 0,0.734505 -0.172785,1.3826 -0.967846,1.3826 -0.66535,0 -0.760425,-0.501196 -0.760425,-1.123364 v -2.678792 h -1.19247 v 2.938029 c 0,1.140653 0.449327,1.823312 1.564085,1.823312 0.578955,0 1.088797,-0.250598 1.356656,-0.725864 z m 2.4281823,-4.649005 h -0.65667 v 0.820914 h 0.65667 v 2.575104 c 0,0.924621 0.1987463,1.252987 1.2702649,1.252987 h 0.8727756 v -0.855486 h -0.3629329 c -0.4233691,0 -0.5875562,-0.09506 -0.5875562,-0.570329 v -2.402276 h 0.9677679 v -0.820914 h -0.9677679 v -1.261636 h -1.1925514 z m 5.7810509,4.649005 h 1.1924715 v -4.649005 h -1.1924715 v 2.419556 c 0,0.734505 -0.1727872,1.3826 -0.9678483,1.3826 -0.6653506,0 -0.7604239,-0.501196 -0.7604239,-1.123364 v -2.678792 h -1.1924715 v 2.938029 c 0,1.140653 0.4493267,1.823312 1.5640843,1.823312 0.5789569,0 1.0887993,-0.250598 1.3566594,-0.725864 z m 4.9255549,-4.623088 c -0.077956,-0.0086 -0.1814664,-0.01727 -0.2592607,-0.01727 -0.5443999,0 -0.9591688,0.224668 -1.2270291,0.803633 v -0.812279 h -1.17527302 v 4.649009 H 1.1648401 v -2.436844 c 0,-0.872768 0.3888107,-1.088803 0.9764475,-1.088803 0.1727869,0 0.3196962,0 0.4925635,0.02597 z m 4.9254745,2.62695 c 0.043396,-1.64184 -0.8468169,-2.756563 -2.2812706,-2.756563 -1.3739381,0 -2.3331068,1.028308 -2.3331068,2.410917 0,1.339395 0.8727752,2.45412 2.3676641,2.45412 1.2702658,0 1.9442961,-0.769078 2.1948773,-1.460381 h -1.227029 c -0.2419819,0.40614 -0.6049151,0.535763 -0.9764474,0.535763 -0.5703578,0 -1.106078,-0.388859 -1.175273,-1.183856 z M 5.2694557,73.365337 c 0.501163,0 1.0541618,0.27652 1.0801197,1.062872 H 4.146019 c 0.095072,-0.786352 0.6740299,-1.062872 1.1234367,-1.062872 z m 6.1383593,-2.384993 h -1.235708 v 6.264926 h 1.235708 z m 2.289948,1.615921 h -1.19247 v 4.649005 h 1.19247 v -2.419563 c 0,-0.734508 0.172788,-1.373963 0.95917,-1.373963 0.67403,0 0.803661,0.527122 0.803661,1.123367 v 2.67016 h 1.192471 v -2.929399 c 0,-1.149291 -0.492563,-1.823303 -1.60724,-1.823303 -0.579037,0 -1.080201,0.241949 -1.348062,0.717226 z m 8.209233,4.649005 v -6.264926 h -1.19255 v 2.212165 c -0.250583,-0.440704 -0.751744,-0.69994 -1.339383,-0.69994 -1.123356,0 -2.022008,0.967824 -2.022008,2.428196 0,1.486297 0.91593,2.436841 2.022008,2.436841 0.483966,0 1.036966,-0.181464 1.339383,-0.699945 v 0.58761 z m -2.238114,-0.803642 c -0.622195,0 -1.06284,-0.604885 -1.06284,-1.512225 0,-0.907332 0.440645,-1.520863 1.06284,-1.520863 0.656754,0 1.088802,0.578964 1.088802,1.512225 0,0.959183 -0.432048,1.520863 -1.088802,1.520863 z m 6.169863,0.803642 h 1.192472 v -4.649005 h -1.192472 v 2.419556 c 0,0.734505 -0.172788,1.3826 -0.967849,1.3826 -0.665349,0 -0.760424,-0.501196 -0.760424,-1.123364 v -2.678792 h -1.19247 v 2.938029 c 0,1.140653 0.449327,1.823312 1.564083,1.823312 0.578957,0 1.0888,-0.250598 1.35666,-0.725864 z m 5.997074,-3.249126 c -0.164185,-1.071512 -1.0802,-1.520862 -2.047965,-1.520862 -1.002407,0 -1.901141,0.553046 -1.901141,1.382607 0,0.846841 0.578956,1.209776 1.451733,1.391243 l 0.691309,0.1469 c 0.40617,0.09506 0.760423,0.22468 0.760423,0.570327 0,0.337006 -0.319697,0.52712 -0.838218,0.52712 -0.622115,0 -0.933209,-0.337014 -1.002324,-0.786359 h -1.149317 c 0.112364,1.062876 0.976449,1.650486 2.117082,1.650486 1.054244,0 2.013414,-0.570324 2.013414,-1.503583 0,-0.959186 -0.786304,-1.192496 -1.710914,-1.399889 l -0.622194,-0.138262 c -0.440729,-0.09506 -0.622193,-0.285162 -0.622193,-0.535761 0,-0.285162 0.311094,-0.449341 0.751824,-0.449341 0.552997,0 0.898651,0.276522 0.993726,0.665374 z m 1.062844,-1.399879 H 32.24191 v 0.820914 h 0.656753 v 2.575104 c 0,0.924621 0.198743,1.252987 1.270266,1.252987 h 0.872772 v -0.855486 h -0.362933 c -0.423446,0 -0.587636,-0.09506 -0.587636,-0.570329 v -2.402276 h 0.967851 v -0.820914 h -0.967851 v -1.261636 h -1.192469 z m 5.582306,0.02593 c -0.07797,-0.0086 -0.181468,-0.01727 -0.259262,-0.01727 -0.5444,0 -0.95917,0.224673 -1.227028,0.803637 v -0.812269 h -1.175275 v 4.649005 h 1.192554 v -2.436841 c 0,-0.872768 0.388812,-1.088801 0.976447,-1.088801 0.172788,0 0.319697,0 0.492564,0.02596 z m 1.166514,6.135312 c 1.157994,0 1.391295,-0.207391 1.944295,-1.650485 l 1.702393,-4.510737 H 42.084342 L 41.004223,75.94911 39.94998,72.596294 h -1.304824 l 1.780108,4.631718 -0.05224,0.129623 c -0.207343,0.492548 -0.38021,0.483909 -0.777702,0.483909 h -0.449326 v 0.915981 z"
       id="text236-1-1-7-3-82-1-1-9-1-4-6-6-4-8-7-5-9-9-5-5-6-1-1-8-1-6-7-6-1-0"
       aria-label="For Future Industry" />
  </g>
</svg>
